<svg width="25" height="25" viewBox="0 0 25 25" fill="none" xmlns="http://www.w3.org/2000/svg">
<path d="M11.3098 4.33333H4.30981C3.77938 4.33333 3.27067 4.54405 2.8956 4.91912C2.52053 5.29419 2.30981 5.8029 2.30981 6.33333V20.3333C2.30981 20.8638 2.52053 21.3725 2.8956 21.7475C3.27067 22.1226 3.77938 22.3333 4.30981 22.3333H18.3098C18.8402 22.3333 19.349 22.1226 19.724 21.7475C20.0991 21.3725 20.3098 20.8638 20.3098 20.3333V13.3333M18.8098 2.83333C19.2076 2.43551 19.7472 2.21201 20.3098 2.21201C20.8724 2.21201 21.412 2.43551 21.8098 2.83333C22.2076 3.23116 22.4311 3.77072 22.4311 4.33333C22.4311 4.89594 22.2076 5.43551 21.8098 5.83333L12.3098 15.3333L8.30981 16.3333L9.30981 12.3333L18.8098 2.83333Z" stroke="#1E1E1E" stroke-linecap="round" stroke-linejoin="round"/>
</svg>
