<?xml version="1.0" ?><!DOCTYPE svg  PUBLIC '-//W3C//DTD SVG 1.1//EN'  'http://www.w3.org/Graphics/SVG/1.1/DTD/svg11.dtd'><svg height="8.4666mm" style="shape-rendering:geometricPrecision; text-rendering:geometricPrecision; image-rendering:optimizeQuality; fill-rule:evenodd; clip-rule:evenodd" version="1.1" viewBox="0 0 846.66 846.66" width="8.4666mm" xml:space="preserve" xmlns="http://www.w3.org/2000/svg" xmlns:xlink="http://www.w3.org/1999/xlink"><defs><style type="text/css">
   <![CDATA[
    .fil0 {fill:black;fill-rule:nonzero}
   ]]>
  </style></defs><g id="Layer_x0020_1"><path class="fil0" d="M42.77 8.12l761.12 0c11.46,0 20.76,9.3 20.76,20.76l0 788.9c0,11.46 -9.3,20.75 -20.76,20.75l-761.12 0c-11.46,0 -20.75,-9.29 -20.75,-20.75l0 -788.9c0,-11.46 9.29,-20.76 20.75,-20.76zm105.55 717.89c-27.3,0 -27.3,-41.51 0,-41.51l533.34 0c27.31,0 27.31,41.51 0,41.51l-533.34 0zm0 -102.77c-27.3,0 -27.3,-41.51 0,-41.51l326.4 0c27.3,0 27.3,41.51 0,41.51l-326.4 0zm0 -102.77c-27.3,0 -27.3,-41.52 0,-41.52l533.34 0c27.31,0 27.31,41.52 0,41.52l-533.34 0zm-8.32 -320.68l316.67 0c11.46,0 20.75,9.29 20.75,20.76l0 176.39c0,11.46 -9.29,20.76 -20.75,20.76l-316.67 0c-11.47,0 -20.76,-9.3 -20.76,-20.76l0 -176.39c0,-11.47 9.29,-20.76 20.76,-20.76zm295.91 41.51l-275.15 0 0 134.88 275.15 0 0 -134.88zm-270.91 -102.77c-27.31,0 -27.31,-41.52 0,-41.52l131.94 0c27.31,0 27.31,41.52 0,41.52l-131.94 0zm618.13 -88.89l-719.6 0 0 747.38 719.6 0 0 -747.38z"/></g></svg>